<?xml version="1.0" encoding="UTF-8" standalone="no"?>
<svg
   xmlns:dc="http://purl.org/dc/elements/1.1/"
   xmlns:cc="http://creativecommons.org/ns#"
   xmlns:rdf="http://www.w3.org/1999/02/22-rdf-syntax-ns#"
   xmlns:svg="http://www.w3.org/2000/svg"
   xmlns="http://www.w3.org/2000/svg"
   viewBox="0 0 184.34666 53.893333"
   height="53.893333"
   width="184.34666"
   xml:space="preserve"
   id="svg2"
   version="1.1"><metadata
     id="metadata8"><rdf:RDF><cc:Work
         rdf:about=""><dc:format>image/svg+xml</dc:format><dc:type
           rdf:resource="http://purl.org/dc/dcmitype/StillImage" /></cc:Work></rdf:RDF></metadata><defs
     id="defs6"><clipPath
       id="clipPath20"
       clipPathUnits="userSpaceOnUse"><path
         id="path18"
         d="M 0,0 H 1382.62 V 404 H 0 Z" /></clipPath></defs><g
     transform="matrix(1.3333333,0,0,-1.3333333,0,53.893333)"
     id="g10"><g
       transform="scale(0.1)"
       id="g12"><g
         id="g14"><g
           clip-path="url(#clipPath20)"
           id="g16"><path
             id="path22"
             style="fill:#231f20;fill-opacity:1;fill-rule:nonzero;stroke:none"
             d="m 319.84,68.9922 h 6.156 V 13.0273 h -5.035 L 284.82,58.9258 V 13.0273 h -6.16 v 55.9649 h 5.918 L 319.84,24.1406 v 44.8516" /><path
             id="path24"
             style="fill:#231f20;fill-opacity:1;fill-rule:nonzero;stroke:none"
             d="m 343.941,25.3438 c 0,-5.2852 4.793,-8.3126 10.395,-8.3126 7.594,0 13.832,4.629 13.832,11.1915 v 3.9961 c -3.039,0.875 -7.117,1.7539 -12.156,1.7539 -7.754,0 -12.071,-3.3594 -12.071,-8.6289 z m -0.722,21.1015 -1.836,5.0391 c 4.555,2.0781 9.031,3.4375 15.027,3.4375 11.278,0 17.594,-5.75 17.594,-16.6289 V 13.0273 h -5.918 v 6.2305 c -2.875,-3.75 -7.676,-7.1094 -14.949,-7.1094 -7.676,0 -15.434,4.3164 -15.434,12.9493 0,8.7968 7.195,13.4375 17.672,13.4375 5.273,0 9.035,-0.7227 12.711,-1.7579 v 1.4375 c 0,7.4297 -4.555,11.2774 -12.316,11.2774 -4.875,0 -8.715,-1.2891 -12.551,-3.0469" /><path
             id="path26"
             style="fill:#231f20;fill-opacity:1;fill-rule:nonzero;stroke:none"
             d="m 395.062,24.7852 c 0,-5.0391 2.797,-6.875 6.958,-6.875 2.082,0 3.839,0.3906 6,1.4336 v -5.2813 c -2.161,-1.1133 -4.481,-1.7578 -7.438,-1.7578 -6.637,0 -11.676,3.2812 -11.676,11.6797 v 24.9414 h -5.758 v 5.4375 h 5.758 v 12.4726 h 6.156 V 54.3633 H 408.18 V 48.9258 H 395.062 V 24.7852" /><path
             id="path28"
             style="fill:#231f20;fill-opacity:1;fill-rule:nonzero;stroke:none"
             d="m 419.629,13.0273 v 41.336 h 6.156 v -41.336 z m -0.399,50.3711 v 6.7969 h 7.036 v -6.7969 h -7.036" /><path
             id="path30"
             style="fill:#231f20;fill-opacity:1;fill-rule:nonzero;stroke:none"
             d="m 458.98,49.8047 c -8.957,0 -15.113,-7.1094 -15.113,-16.0742 0,-8.9453 6.559,-16.1524 15.27,-16.1524 8.953,0 15.195,7.1289 15.195,15.9961 0,9.043 -6.637,16.2305 -15.352,16.2305 z m 0,-37.7344 c -12.394,0 -21.429,9.7461 -21.429,21.5039 0,11.7578 9.113,21.668 21.586,21.668 12.394,0 21.508,-9.7539 21.508,-21.5117 0,-11.75 -9.196,-21.6602 -21.665,-21.6602" /><path
             id="path32"
             style="fill:#231f20;fill-opacity:1;fill-rule:nonzero;stroke:none"
             d="m 497.945,13.0273 h -6.16 v 41.336 h 6.16 V 47.168 c 2.719,4.4726 7.035,8.0742 14.149,8.0742 9.996,0 15.836,-6.7188 15.836,-16.5508 V 13.0273 h -6.157 V 37.168 c 0,7.6758 -4.16,12.4804 -11.437,12.4804 -7.113,0 -12.391,-5.1953 -12.391,-12.9492 V 13.0273" /><path
             id="path34"
             style="fill:#231f20;fill-opacity:1;fill-rule:nonzero;stroke:none"
             d="m 544.188,25.3438 c 0,-5.2852 4.796,-8.3126 10.398,-8.3126 7.594,0 13.828,4.629 13.828,11.1915 v 3.9961 c -3.039,0.875 -7.113,1.7539 -12.148,1.7539 -7.758,0 -12.078,-3.3594 -12.078,-8.6289 z m -0.715,21.1015 -1.84,5.0391 c 4.555,2.0781 9.031,3.4375 15.027,3.4375 11.274,0 17.594,-5.75 17.594,-16.6289 V 13.0273 h -5.918 v 6.2305 c -2.875,-3.75 -7.676,-7.1094 -14.953,-7.1094 -7.676,0 -15.43,4.3164 -15.43,12.9493 0,8.7968 7.192,13.4375 17.668,13.4375 5.277,0 9.035,-0.7227 12.715,-1.7579 v 1.4375 c 0,7.4297 -4.559,11.2774 -12.316,11.2774 -4.872,0 -8.711,-1.2891 -12.547,-3.0469" /><path
             id="path36"
             style="fill:#231f20;fill-opacity:1;fill-rule:nonzero;stroke:none"
             d="m 587.949,13.0273 h 6.15625 V 71.3945 H 587.949 Z" /><path
             id="path38"
             style="fill:#231f20;fill-opacity:1;fill-rule:nonzero;stroke:none"
             d="m 633.469,68.9922 h 6.316 v -50.125 h 31.5 v -5.8399 h -37.816 v 55.9649" /><path
             id="path40"
             style="fill:#231f20;fill-opacity:1;fill-rule:nonzero;stroke:none"
             d="m 682.512,13.0273 v 41.336 h 6.156 v -41.336 z m -0.403,50.3711 v 6.7969 h 7.036 v -6.7969 h -7.036" /><path
             id="path42"
             style="fill:#231f20;fill-opacity:1;fill-rule:nonzero;stroke:none"
             d="m 723.855,49.7266 c -7.671,0 -14.949,-6.3985 -14.949,-15.9961 0,-9.668 7.278,-16.0625 14.949,-16.0625 8,0 14.551,5.9179 14.551,15.9843 0,9.8438 -6.711,16.0743 -14.551,16.0743 z m 1.122,-37.5782 c -7.676,0 -12.633,4.1602 -15.832,8.7891 v -7.9102 h -6.157 v 58.3672 h 6.157 V 46.0547 c 3.359,4.9531 8.238,9.1875 15.832,9.1875 9.918,0 19.75,-7.8399 19.75,-21.5117 0,-13.5938 -9.754,-21.5821 -19.75,-21.5821" /><path
             id="path44"
             style="fill:#231f20;fill-opacity:1;fill-rule:nonzero;stroke:none"
             d="m 762.266,13.0273 h -6.157 v 41.336 h 6.157 V 43.5742 c 3.039,6.875 9.039,11.836 16.871,11.5039 v -6.6328 h -0.481 c -9.031,0 -16.39,-6.4726 -16.39,-18.9531 V 13.0273" /><path
             id="path46"
             style="fill:#231f20;fill-opacity:1;fill-rule:nonzero;stroke:none"
             d="m 789.641,25.3438 c 0,-5.2852 4.793,-8.3126 10.394,-8.3126 7.594,0 13.828,4.629 13.828,11.1915 v 3.9961 c -3.039,0.875 -7.117,1.7539 -12.148,1.7539 -7.762,0 -12.074,-3.3594 -12.074,-8.6289 z m -0.719,21.1015 -1.844,5.0391 c 4.559,2.0781 9.035,3.4375 15.031,3.4375 11.274,0 17.594,-5.75 17.594,-16.6289 V 13.0273 h -5.918 v 6.2305 c -2.879,-3.75 -7.676,-7.1094 -14.953,-7.1094 -7.676,0 -15.43,4.3164 -15.43,12.9493 0,8.7968 7.196,13.4375 17.668,13.4375 5.278,0 9.035,-0.7227 12.715,-1.7579 v 1.4375 c 0,7.4297 -4.555,11.2774 -12.316,11.2774 -4.871,0 -8.711,-1.2891 -12.547,-3.0469" /><path
             id="path48"
             style="fill:#231f20;fill-opacity:1;fill-rule:nonzero;stroke:none"
             d="m 839,13.0273 h -6.164 v 41.336 H 839 V 43.5742 c 3.027,6.875 9.031,11.836 16.863,11.5039 v -6.6328 h -0.476 C 846.352,48.4453 839,41.9727 839,29.4922 V 13.0273" /><path
             id="path50"
             style="fill:#231f20;fill-opacity:1;fill-rule:nonzero;stroke:none"
             d="M 885.387,11.6719 C 881.871,3.11328 877.875,0 871.637,0 c -3.438,0 -5.996,0.714844 -8.789,2.07031 l 2.07,4.88281 c 2,-1.03515 3.848,-1.52343 6.484,-1.52343 3.672,0 5.996,1.91406 8.477,7.75391 L 861.09,54.3633 h 6.797 l 15.019,-34.461 13.282,34.461 h 6.55 L 885.387,11.6719" /><path
             id="path52"
             style="fill:#231f20;fill-opacity:1;fill-rule:nonzero;stroke:none"
             d="m 955.387,49.8047 c -8.946,0 -15.11,-7.1094 -15.11,-16.0742 0,-8.9453 6.555,-16.1524 15.274,-16.1524 8.957,0 15.187,7.1289 15.187,15.9961 0,9.043 -6.633,16.2305 -15.351,16.2305 z m 0,-37.7344 c -12.383,0 -21.426,9.7461 -21.426,21.5039 0,11.7578 9.121,21.668 21.59,21.668 12.394,0 21.504,-9.7539 21.504,-21.5117 0,-11.75 -9.188,-21.6602 -21.668,-21.6602" /><path
             id="path54"
             style="fill:#231f20;fill-opacity:1;fill-rule:nonzero;stroke:none"
             d="M 1009.7,54.1992 V 48.9258 H 996.676 V 13.0273 h -6.153 v 35.8985 h -5.683 v 5.3594 h 5.683 v 3.5976 c 0,9.0313 4.551,13.836 12.467,13.836 2.88,0 4.8,-0.3243 6.8,-1.043 v -5.3633 c -2.24,0.6445 -3.92,1.043 -6.01,1.043 -4.78,0 -7.182,-2.8789 -7.182,-8.7969 v -3.3594 h 13.102" /><path
             id="path56"
             style="fill:#231f20;fill-opacity:1;fill-rule:nonzero;stroke:none"
             d="m 1083.77,68.9922 h 6.17 V 13.0273 h -5.04 l -36.15,45.8985 V 13.0273 h -6.16 v 55.9649 h 5.92 l 35.26,-44.8516 v 44.8516" /><path
             id="path58"
             style="fill:#231f20;fill-opacity:1;fill-rule:nonzero;stroke:none"
             d="m 1123.63,49.8047 c -8.96,0 -15.12,-7.1094 -15.12,-16.0742 0,-8.9453 6.56,-16.1524 15.27,-16.1524 8.96,0 15.2,7.1289 15.2,15.9961 0,9.043 -6.64,16.2305 -15.35,16.2305 z m 0,-37.7344 c -12.39,0 -21.43,9.7461 -21.43,21.5039 0,11.7578 9.11,21.668 21.58,21.668 12.41,0 21.51,-9.7539 21.51,-21.5117 0,-11.75 -9.19,-21.6602 -21.66,-21.6602" /><path
             id="path60"
             style="fill:#231f20;fill-opacity:1;fill-rule:nonzero;stroke:none"
             d="m 1162.59,13.0273 h -6.15 v 41.336 h 6.15 V 43.5742 c 3.04,6.875 9.04,11.836 16.88,11.5039 v -6.6328 h -0.49 c -9.02,0 -16.39,-6.4726 -16.39,-18.9531 V 13.0273" /><path
             id="path62"
             style="fill:#231f20;fill-opacity:1;fill-rule:nonzero;stroke:none"
             d="m 1230.17,21.1797 10.88,33.1836 h 6.39 l -14.55,-41.6602 h -5.36 l -11.11,32.6289 -11.19,-32.6289 h -5.44 l -14.47,41.6602 h 6.55 l 10.88,-33.1836 11.11,33.3515 h 5.12 l 11.19,-33.3515" /><path
             id="path64"
             style="fill:#231f20;fill-opacity:1;fill-rule:nonzero;stroke:none"
             d="m 1259.23,25.3438 c 0,-5.2852 4.79,-8.3126 10.39,-8.3126 7.6,0 13.83,4.629 13.83,11.1915 v 3.9961 c -3.03,0.875 -7.11,1.7539 -12.15,1.7539 -7.75,0 -12.07,-3.3594 -12.07,-8.6289 z m -0.72,21.1015 -1.84,5.0391 c 4.56,2.0781 9.03,3.4375 15.02,3.4375 11.28,0 17.6,-5.75 17.6,-16.6289 V 13.0273 h -5.92 v 6.2305 c -2.87,-3.75 -7.67,-7.1094 -14.95,-7.1094 -7.67,0 -15.43,4.3164 -15.43,12.9493 0,8.7968 7.2,13.4375 17.67,13.4375 5.27,0 9.04,-0.7227 12.71,-1.7579 v 1.4375 c 0,7.4297 -4.55,11.2774 -12.31,11.2774 -4.87,0 -8.71,-1.2891 -12.55,-3.0469" /><path
             id="path66"
             style="fill:#231f20;fill-opacity:1;fill-rule:nonzero;stroke:none"
             d="M 1320.97,11.6719 C 1317.46,3.11328 1313.46,0 1307.22,0 c -3.44,0 -5.99,0.714844 -8.79,2.07031 l 2.07,4.88281 c 2,-1.03515 3.85,-1.52343 6.49,-1.52343 3.67,0 5.99,1.91406 8.47,7.75391 l -18.79,41.1797 h 6.8 l 15.02,-34.461 13.28,34.461 h 6.56 l -17.36,-42.6914" /><path
             id="path68"
             style="fill:#231f20;fill-opacity:1;fill-rule:nonzero;stroke:none"
             d="m 15.1758,297.305 c 8.3789,0 15.1719,6.797 15.1719,15.175 0,8.379 -6.793,15.176 -15.1719,15.176 C 6.79297,327.656 0,320.859 0,312.48 0,304.102 6.79297,297.305 15.1758,297.305" /><path
             id="path70"
             style="fill:#231f20;fill-opacity:1;fill-rule:nonzero;stroke:none"
             d="m 166.938,297.305 c -8.383,0 -15.176,6.797 -15.176,15.175 0,8.379 6.793,15.176 15.176,15.176 8.378,0 15.171,-6.797 15.171,-15.176 0,-8.378 -6.793,-15.175 -15.171,-15.175 z m 0,-75.274 c -8.383,0 -15.176,6.797 -15.176,15.176 0,8.379 6.793,15.176 15.176,15.176 8.378,0 15.171,-6.797 15.171,-15.176 0,-8.379 -6.793,-15.176 -15.171,-15.176 z m 0,-74.804 c -8.383,0 -15.176,6.796 -15.176,15.175 0,8.379 6.793,15.176 15.176,15.176 8.378,0 15.171,-6.797 15.171,-15.176 0,-8.379 -6.793,-15.175 -15.171,-15.175 z M 91.3828,297.305 c -8.3867,0 -15.1758,6.797 -15.1758,15.175 0,8.379 6.7891,15.176 15.1758,15.176 8.3789,0 15.1722,-6.797 15.1722,-15.176 0,-8.378 -6.7933,-15.175 -15.1722,-15.175 z M 53.5938,404.238 V 123.27 H 231.77 V 404.238 H 53.5938" /><path
             id="path72"
             style="fill:#231f20;fill-opacity:1;fill-rule:nonzero;stroke:none"
             d="m 168.047,71.4258 c 8.379,0 15.172,6.7969 15.172,15.1758 0,8.3672 -6.793,15.1644 -15.172,15.1644 -8.383,0 -15.176,-6.7972 -15.176,-15.1644 0,-8.3789 6.793,-15.1758 15.176,-15.1758" /><path
             id="path74"
             style="fill:#231f20;fill-opacity:1;fill-rule:nonzero;stroke:none"
             d="m 336.223,208.016 h 14.16 v -81.922 h -12.059 l -45.176,58.281 v -58.281 h -14.16 v 81.922 h 13.348 l 43.887,-56.649 v 56.649" /><path
             id="path76"
             style="fill:#231f20;fill-opacity:1;fill-rule:nonzero;stroke:none"
             d="m 407.93,152.305 c -3.629,1.406 -8.657,2.461 -14.16,2.461 -8.891,0 -14.161,-3.633 -14.161,-9.942 v -0.234 c 0,-5.86 5.27,-9.129 11.938,-9.129 9.359,0 16.383,5.262 16.383,12.984 z m -0.348,-26.211 v 7.605 c -4.215,-5.027 -10.652,-8.894 -20.016,-8.894 -11.703,0 -22,6.679 -22,19.082 v 0.234 c 0,13.34 10.649,19.891 25.043,19.891 7.493,0 12.289,-1.051 17.086,-2.567 v 1.516 c 0,8.543 -5.383,13.23 -15.211,13.23 -6.91,0 -12.054,-1.523 -17.675,-3.867 l -3.864,11.348 c 6.789,3.047 13.465,5.156 23.528,5.156 18.257,0 27.152,-9.601 27.152,-26.105 v -36.629 h -14.043" /><path
             id="path78"
             style="fill:#231f20;fill-opacity:1;fill-rule:nonzero;stroke:none"
             d="m 459.641,124.922 c -8.782,0 -18.493,3.164 -26.219,9.25 l 6.32,9.598 c 6.676,-5.04 13.93,-7.618 20.246,-7.618 6.086,0 9.598,2.578 9.598,6.68 v 0.234 c 0,4.793 -6.555,6.438 -13.809,8.653 -9.132,2.578 -19.312,6.328 -19.312,18.144 v 0.235 c 0,11.699 9.719,18.847 22.004,18.847 7.722,0 16.148,-2.695 22.703,-7.031 l -5.613,-10.059 c -5.973,3.633 -12.293,5.848 -17.446,5.848 -5.496,0 -8.656,-2.566 -8.656,-6.199 v -0.234 c 0,-4.454 6.672,-6.321 13.926,-8.665 9.015,-2.8 19.195,-6.902 19.195,-18.015 v -0.235 c 0,-12.988 -10.062,-19.433 -22.937,-19.433" /><path
             id="path80"
             style="fill:#231f20;fill-opacity:1;fill-rule:nonzero;stroke:none"
             d="m 497.191,197.363 v 13.457 h 15.211 v -13.457 z m 14.747,-9.472 v -62.618 c 0,-12.519 -6.442,-18.261 -18.028,-18.261 -2.687,0 -4.558,0.234 -6.785,0.586 v 11.355 c 1.406,-0.234 2.695,-0.351 3.98,-0.351 3.977,0 6.668,2.101 6.668,7.492 v 61.797 h 14.165" /><path
             id="path82"
             style="fill:#231f20;fill-opacity:1;fill-rule:nonzero;stroke:none"
             d="m 556.395,176.766 c -11.352,0 -18.606,-8.895 -18.606,-19.774 0,-10.996 7.84,-20.019 18.844,-20.019 11.469,0 18.722,8.906 18.722,19.785 0,10.996 -7.839,20.008 -18.96,20.008 z m 0,-52.078 c -18.84,0 -32.766,14.394 -32.766,32.07 0,17.793 14.043,32.422 33.004,32.422 18.957,0 32.883,-14.395 32.883,-32.188 0,-17.676 -14.043,-32.304 -33.121,-32.304" /><path
             id="path84"
             style="fill:#231f20;fill-opacity:1;fill-rule:nonzero;stroke:none"
             d="m 614.652,126.094 h -14.16 v 61.797 h 14.16 v -9.598 c 3.981,5.848 9.711,10.887 19.313,10.887 13.926,0 22.004,-9.368 22.004,-23.758 v -39.328 h -14.16 v 35.117 c 0,9.59 -4.801,15.098 -13.231,15.098 -8.191,0 -13.926,-5.743 -13.926,-15.332 v -34.883" /><path
             id="path86"
             style="fill:#231f20;fill-opacity:1;fill-rule:nonzero;stroke:none"
             d="m 711.184,152.305 c -3.629,1.406 -8.661,2.461 -14.164,2.461 -8.891,0 -14.161,-3.633 -14.161,-9.942 v -0.234 c 0,-5.86 5.27,-9.129 11.942,-9.129 9.359,0 16.383,5.262 16.383,12.984 z m -0.348,-26.211 v 7.605 c -4.215,-5.027 -10.656,-8.894 -20.016,-8.894 -11.703,0 -22.004,6.679 -22.004,19.082 v 0.234 c 0,13.34 10.653,19.891 25.047,19.891 7.489,0 12.289,-1.051 17.082,-2.567 v 1.516 c 0,8.543 -5.379,13.23 -15.207,13.23 -6.91,0 -12.054,-1.523 -17.676,-3.867 l -3.863,11.348 c 6.785,3.047 13.461,5.156 23.528,5.156 18.253,0 27.152,-9.601 27.152,-26.105 v -36.629 h -14.043" /><path
             id="path88"
             style="fill:#231f20;fill-opacity:1;fill-rule:nonzero;stroke:none"
             d="m 742.523,126.094 h 14.1641 v 85.4297 H 742.523 Z" /><path
             id="path90"
             style="fill:#231f20;fill-opacity:1;fill-rule:nonzero;stroke:none"
             d="m 807.004,176.883 c -9.598,0 -18.024,-7.84 -18.024,-19.891 0,-12.051 8.426,-19.902 18.024,-19.902 9.715,0 17.668,7.617 17.668,19.902 0,12.168 -8.07,19.891 -17.668,19.891 z m 3.273,-52.078 c -10.179,0 -16.617,5.156 -20.945,10.879 v -9.59 h -14.16 v 85.429 h 14.16 V 177.59 c 4.563,6.433 11,11.59 20.945,11.59 14.629,0 28.793,-11.59 28.793,-32.188 0,-20.605 -14.047,-32.187 -28.793,-32.187" /><path
             id="path92"
             style="fill:#231f20;fill-opacity:1;fill-rule:nonzero;stroke:none"
             d="m 851.262,126.094 v 61.797 h 14.164 v -61.797 z m -0.582,71.269 v 13.457 h 15.211 V 197.363 H 850.68" /><path
             id="path94"
             style="fill:#231f20;fill-opacity:1;fill-rule:nonzero;stroke:none"
             d="m 915.738,176.883 c -9.593,0 -18.023,-7.84 -18.023,-19.891 0,-12.051 8.43,-19.902 18.023,-19.902 9.715,0 17.668,7.617 17.668,19.902 0,12.168 -8.07,19.891 -17.668,19.891 z m 3.278,-52.078 c -10.184,0 -16.618,5.156 -20.95,10.879 v -9.59 h -14.16 v 85.429 h 14.16 V 177.59 c 4.567,6.433 11,11.59 20.95,11.59 14.629,0 28.793,-11.59 28.793,-32.188 0,-20.605 -14.047,-32.187 -28.793,-32.187" /><path
             id="path96"
             style="fill:#231f20;fill-opacity:1;fill-rule:nonzero;stroke:none"
             d="m 961.41,126.094 h 14.1641 v 85.4297 H 961.41 Z" /><path
             id="path98"
             style="fill:#231f20;fill-opacity:1;fill-rule:nonzero;stroke:none"
             d="m 994.871,126.094 v 61.797 h 14.169 v -61.797 z m -0.578,71.269 v 13.457 h 15.207 v -13.457 h -15.207" /><path
             id="path100"
             style="fill:#231f20;fill-opacity:1;fill-rule:nonzero;stroke:none"
             d="m 1055.48,176.766 c -11.35,0 -18.61,-8.895 -18.61,-19.774 0,-10.996 7.84,-20.019 18.85,-20.019 11.46,0 18.72,8.906 18.72,19.785 0,10.996 -7.84,20.008 -18.96,20.008 z m 0,-52.078 c -18.84,0 -32.77,14.394 -32.77,32.07 0,17.793 14.04,32.422 33.01,32.422 18.95,0 32.88,-14.395 32.88,-32.188 0,-17.676 -14.04,-32.304 -33.12,-32.304" /><path
             id="path102"
             style="fill:#231f20;fill-opacity:1;fill-rule:nonzero;stroke:none"
             d="m 1117.5,145.41 c 0,-5.508 2.82,-7.734 7.62,-7.734 3.16,0 5.96,0.703 8.77,2.109 v -11.582 c -3.5,-1.992 -7.48,-3.164 -12.75,-3.164 -10.41,0 -17.8,4.57 -17.8,18.145 v 32.539 h -7.83 v 12.168 h 7.83 v 16.972 h 14.16 v -16.972 h 16.63 V 175.723 H 1117.5 V 145.41" /><path
             id="path104"
             style="fill:#231f20;fill-opacity:1;fill-rule:nonzero;stroke:none"
             d="m 1189.01,161.328 c -0.93,9.121 -6.31,16.262 -15.68,16.262 -8.66,0 -14.75,-6.672 -16.03,-16.262 z M 1175.2,136.27 c 6.91,0 11.83,2.578 16.74,7.382 l 8.31,-7.382 c -5.85,-7.012 -13.93,-11.582 -25.28,-11.582 -17.9,0 -31.71,12.988 -31.71,32.187 0,17.793 12.52,32.305 30.18,32.305 19.67,0 29.62,-15.45 29.62,-33.36 0,-1.289 -0.12,-2.461 -0.23,-3.867 h -45.41 c 1.63,-10.058 8.66,-15.683 17.78,-15.683" /><path
             id="path106"
             style="fill:#231f20;fill-opacity:1;fill-rule:nonzero;stroke:none"
             d="m 1275.13,126.094 h -16.38 l -18.61,26.679 -8.66,-9.003 v -17.676 h -14.16 v 85.429 h 14.16 v -51.015 l 25.63,27.383 h 17.2 l -24.58,-25.168 25.4,-36.629" /><path
             id="path108"
             style="fill:#231f20;fill-opacity:1;fill-rule:nonzero;stroke:none"
             d="m 1322.03,161.328 c -0.93,9.121 -6.32,16.262 -15.68,16.262 -8.67,0 -14.75,-6.672 -16.03,-16.262 z m -13.81,-25.058 c 6.9,0 11.82,2.578 16.74,7.382 l 8.31,-7.382 c -5.86,-7.012 -13.93,-11.582 -25.29,-11.582 -17.9,0 -31.71,12.988 -31.71,32.187 0,17.793 12.52,32.305 30.19,32.305 19.66,0 29.62,-15.45 29.62,-33.36 0,-1.289 -0.12,-2.461 -0.24,-3.867 h -45.41 c 1.64,-10.058 8.66,-15.683 17.79,-15.683" /><path
             id="path110"
             style="fill:#231f20;fill-opacity:1;fill-rule:nonzero;stroke:none"
             d="m 1366,145.41 c 0,-5.508 2.8,-7.734 7.61,-7.734 3.16,0 5.97,0.703 8.78,2.109 v -11.582 c -3.51,-1.992 -7.49,-3.164 -12.77,-3.164 -10.41,0 -17.78,4.57 -17.78,18.145 v 32.539 H 1344 v 12.168 h 7.84 v 16.972 H 1366 v -16.972 h 16.62 V 175.723 H 1366 V 145.41" /></g></g></g></g></svg>