<?xml version="1.0" encoding="utf-8"?>
<!-- Generator: Adobe Illustrator 16.0.3, SVG Export Plug-In . SVG Version: 6.00 Build 0)  -->
<!DOCTYPE svg PUBLIC "-//W3C//DTD SVG 1.1//EN" "http://www.w3.org/Graphics/SVG/1.1/DTD/svg11.dtd">
<svg version="1.1" id="Layer_1" xmlns="http://www.w3.org/2000/svg" xmlns:xlink="http://www.w3.org/1999/xlink" x="0px" y="0px"
	 width="800px" height="800px" viewBox="0 0 800 800" enable-background="new 0 0 800 800" xml:space="preserve">
<g>
	<polygon fill="#ED1C2E" points="284,292 515.379,292 515.379,509.461 284,509.461 284,292 	"/>
	<path fill="#FFFFFF" d="M311.758,458.353c0,5.11-0.103,8.762,5.303,11.59v0.274h-18.053v-0.274
		c5.406-2.828,5.406-6.479,5.406-11.59v-36.417c0-5.11,0-8.762-5.304-11.499v-0.274h14.891v0.091
		c0.408,1.096,0.815,1.552,1.53,2.282l1.428,1.825l37.328,42.166v-34.591c0-5.11,0.103-8.762-5.303-11.499v-0.274h17.95v0.274
		c-5.304,2.737-5.304,6.389-5.304,11.499v51.202c-7.241-2.191-10.402-5.203-14.891-10.404l-34.982-39.703V458.353L311.758,458.353z"
		/>
	<path fill="#FFFFFF" d="M400.246,463.646c6.936,0.365,12.953-1.734,18.053-5.567h0.305l-5.303,12.139h-41.92v-0.274
		c5.202-1.643,4.59-8.396,4.59-12.504V423.03c0-4.197,0.612-10.86-4.59-12.594v-0.274h19.48v0.274
		c-5.201,1.733-4.487,8.487-4.487,12.594v39.794L400.246,463.646L400.246,463.646z"/>
	<path fill="#FFFFFF" d="M442.215,472.955c-9.281-6.024-10.199-5.386-13.564-14.786l-12.035-33.678
		c-1.836-5.02-3.365-10.952-8.465-14.055v-0.274h14.891c-0.408,2.008,0.611,4.837,1.223,6.571l15.197,42.439l11.934-34.682
		c1.938-5.567,3.977-11.5-1.633-14.055v-0.274h14.381c-0.611,2.282,0.102,5.202,1.529,9.218l14.178,39.52l11.525-33.404
		c1.836-5.202,5.201-12.595-2.754-15.059v-0.274h15.707l-21.521,62.793c-9.383-5.75-10.096-5.294-13.463-14.694l-11.219-31.396
		L442.215,472.955L442.215,472.955z"/>
	<path fill="#FFFFFF" d="M329.892,382.123c6.936,0.364,12.953-1.731,18.053-5.559h0.306l-5.303,12.119h-41.919v-0.273
		c5.202-1.64,4.589-8.383,4.589-12.484v-34.352c0-4.191,0.613-10.845-4.589-12.575v-0.273h19.48v0.273
		c-5.202,1.73-4.487,8.474-4.487,12.575v39.729L329.892,382.123L329.892,382.123z"/>
	<path fill="#FFFFFF" d="M422.445,339.296h-0.307c-4.182-4.191-11.934-5.468-18.154-5.468c-15.911,0-28.049,9.294-28.049,23.965
		s13.056,25.787,29.17,25.787c4.691,0,9.588-0.546,14.178-1.73v-13.121c0-4.191-0.102-8.657-4.691-10.298v-0.272h15.604v0.272
		c-0.51,1.094-0.51,2.552-0.51,3.919v20.958c0,1.367-0.102,2.825,0.51,4.101c-8.158,1.366-16.113,2.733-24.375,2.733
		c-26.11,0-41.512-12.757-41.512-31.073c0-19.59,17.441-31.801,42.123-31.801c5.406,0,10.709,0.546,16.014,1.549V339.296
		L422.445,339.296z"/>
	<path fill="#FFFFFF" d="M496.412,340.024c-5.609-3.189-12.137-5.194-18.867-5.194c-14.076,0-23.867,9.204-23.867,22.416
		c0,13.396,10.199,25.333,25.906,25.333c7.65,0,15.299-2.461,21.725-5.741h0.307l-5.203,10.57c-4.793,2.005-10.096,2.733-15.4,2.733
		c-24.07,0-38.961-12.028-38.961-31.528c0-18.862,14.891-31.346,35.799-31.346c6.223,0,12.545,1.003,18.563,2.278V340.024
		L496.412,340.024z"/>
	<path fill="#FFFFFF" d="M344.426,363.347c3.982,0.234,7.438-1.112,10.365-3.572h0.176l-3.045,7.789h-24.069v-0.176
		c2.986-1.054,2.635-5.388,2.635-8.023v-22.078c0-2.693,0.352-6.969-2.635-8.082v-0.175h11.186v0.175
		c-2.987,1.113-2.577,5.447-2.577,8.082v25.534L344.426,363.347L344.426,363.347z"/>
</g>
</svg>
