<?xml version="1.0" encoding="UTF-8" standalone="no"?>
<!-- Created with Inkscape (http://www.inkscape.org/) -->

<svg
   xmlns:dc="http://purl.org/dc/elements/1.1/"
   xmlns:cc="http://creativecommons.org/ns#"
   xmlns:rdf="http://www.w3.org/1999/02/22-rdf-syntax-ns#"
   xmlns:svg="http://www.w3.org/2000/svg"
   xmlns="http://www.w3.org/2000/svg"
   xmlns:sodipodi="http://sodipodi.sourceforge.net/DTD/sodipodi-0.dtd"
   xmlns:inkscape="http://www.inkscape.org/namespaces/inkscape"
   id="svg2"
   version="1.1"
   inkscape:version="0.91 r13725"
   xml:space="preserve"
   width="188.87013"
   height="110.49062"
   viewBox="0 0 188.87013 110.49062"
   sodipodi:docname="NYPL.svg"><metadata
     id="metadata8"><rdf:RDF><cc:Work
         rdf:about=""><dc:format>image/svg+xml</dc:format><dc:type
           rdf:resource="http://purl.org/dc/dcmitype/StillImage" /><dc:title></dc:title></cc:Work></rdf:RDF></metadata><defs
     id="defs6"><clipPath
       clipPathUnits="userSpaceOnUse"
       id="clipPath16"><path
         d="M 0,0 612,0 612,792 0,792 0,0 Z"
         id="path18"
         inkscape:connector-curvature="0" /></clipPath><clipPath
       clipPathUnits="userSpaceOnUse"
       id="clipPath130"><path
         d="M 0,0 612,0 612,792 0,792 0,0 Z"
         id="path132"
         inkscape:connector-curvature="0" /></clipPath><clipPath
       clipPathUnits="userSpaceOnUse"
       id="clipPath192"><path
         d="M 0,0 612,0 612,792 0,792 0,0 Z"
         id="path194"
         inkscape:connector-curvature="0" /></clipPath><clipPath
       clipPathUnits="userSpaceOnUse"
       id="clipPath212"><path
         d="M 0,0 612,0 612,792 0,792 0,0 Z"
         id="path214"
         inkscape:connector-curvature="0" /></clipPath><clipPath
       clipPathUnits="userSpaceOnUse"
       id="clipPath246"><path
         d="M 0,0 612,0 612,792 0,792 0,0 Z"
         id="path248"
         inkscape:connector-curvature="0" /></clipPath><clipPath
       clipPathUnits="userSpaceOnUse"
       id="clipPath270"><path
         d="M 0,0 612,0 612,792 0,792 0,0 Z"
         id="path272"
         inkscape:connector-curvature="0" /></clipPath><clipPath
       clipPathUnits="userSpaceOnUse"
       id="clipPath288"><path
         d="M 0,0 612,0 612,792 0,792 0,0 Z"
         id="path290"
         inkscape:connector-curvature="0" /></clipPath><clipPath
       clipPathUnits="userSpaceOnUse"
       id="clipPath304"><path
         d="M 0,0 612,0 612,792 0,792 0,0 Z"
         id="path306"
         inkscape:connector-curvature="0" /></clipPath><clipPath
       clipPathUnits="userSpaceOnUse"
       id="clipPath324"><path
         d="M 0,0 612,0 612,792 0,792 0,0 Z"
         id="path326"
         inkscape:connector-curvature="0" /></clipPath><clipPath
       clipPathUnits="userSpaceOnUse"
       id="clipPath342"><path
         d="M 0,0 612,0 612,792 0,792 0,0 Z"
         id="path344"
         inkscape:connector-curvature="0" /></clipPath><clipPath
       clipPathUnits="userSpaceOnUse"
       id="clipPath364"><path
         d="M 0,0 612,0 612,792 0,792 0,0 Z"
         id="path366"
         inkscape:connector-curvature="0" /></clipPath><clipPath
       clipPathUnits="userSpaceOnUse"
       id="clipPath384"><path
         d="M 0,0 612,0 612,792 0,792 0,0 Z"
         id="path386"
         inkscape:connector-curvature="0" /></clipPath></defs><sodipodi:namedview
     pagecolor="#ffffff"
     bordercolor="#666666"
     borderopacity="1"
     objecttolerance="10"
     gridtolerance="10"
     guidetolerance="10"
     inkscape:pageopacity="0"
     inkscape:pageshadow="2"
     inkscape:window-width="1920"
     inkscape:window-height="1017"
     id="namedview4"
     showgrid="false"
     fit-margin-top="5"
     fit-margin-left="5"
     fit-margin-right="5"
     fit-margin-bottom="5"
     inkscape:zoom="1.9070707"
     inkscape:cx="22.936602"
     inkscape:cy="109.374"
     inkscape:window-x="-8"
     inkscape:window-y="-8"
     inkscape:window-maximized="1"
     inkscape:current-layer="g404" /><g
     id="g10"
     inkscape:groupmode="layer"
     inkscape:label="Facts__Figures_v2_0"
     transform="matrix(1.25,0,0,-1.25,-39.999875,152.5)"><g
       id="g296"
       transform="translate(107.8442,116.9243)"><path
         d="m 0,0 1.076,0 7.908,-11.454 0,11.454 1.036,0 0,-13.267 -1.016,0 -7.988,11.534 0,-11.534 -1.016,0 L 0,0 Z"
         style="fill:#000000;fill-opacity:1;fill-rule:nonzero;stroke:none"
         id="path298"
         inkscape:connector-curvature="0" /></g><g
       id="g300"><g
         id="g302"
         clip-path="url(#clipPath304)"><g
           id="g308"
           transform="translate(119.9562,108.4978)"><path
             d="m 0,0 c 0,2.689 1.554,4.881 4.084,4.881 2.43,0 3.765,-1.953 3.566,-4.662 l -6.554,0 0,-0.219 c 0.02,-2.171 0.936,-4.163 3.207,-4.163 1.215,0 2.231,0.498 2.749,0.896 L 7.49,-4.084 C 6.893,-4.522 5.797,-5.06 4.263,-5.06 1.355,-5.06 0,-2.729 0,0 M 6.614,1.076 C 6.594,2.51 5.857,3.984 4.044,3.984 2.391,3.984 1.434,2.709 1.155,1.076 l 5.459,0 z"
             style="fill:#000000;fill-opacity:1;fill-rule:nonzero;stroke:none"
             id="path310"
             inkscape:connector-curvature="0" /></g></g></g><g
       id="g312"
       transform="translate(128.7208,113.1593)"><path
         d="M 0,0 1.116,0 3.426,-7.909 5.916,0 6.932,0 9.423,-7.928 11.753,0 l 1.036,0 -2.868,-9.502 -0.957,0 -2.57,8.008 -2.569,-8.008 -0.956,0 L 0,0 Z"
         style="fill:#000000;fill-opacity:1;fill-rule:nonzero;stroke:none"
         id="path314"
         inkscape:connector-curvature="0" /></g><g
       id="g316"
       transform="translate(150.6728,108.6572)"><path
         d="m 0,0 -4.442,8.267 1.235,0 3.765,-7.171 0.04,0 3.765,7.171 1.115,0 L 1.076,0 1.076,-5 0,-5 0,0 Z"
         style="fill:#000000;fill-opacity:1;fill-rule:nonzero;stroke:none"
         id="path318"
         inkscape:connector-curvature="0" /></g><g
       id="g320"><g
         id="g322"
         clip-path="url(#clipPath324)"><g
           id="g328"
           transform="translate(155.254,108.3982)"><path
             d="m 0,0 c 0,2.391 1.275,4.98 4.263,4.98 2.988,0 4.363,-2.57 4.363,-4.94 0,-2.391 -1.355,-5 -4.343,-5 C 1.295,-4.96 0,-2.39 0,0 m 7.53,0 c 0,2.132 -1.135,4.084 -3.307,4.084 -2.151,0 -3.127,-1.913 -3.127,-4.044 0,-2.152 1.056,-4.104 3.207,-4.104 2.171,0 3.227,1.913 3.227,4.064"
             style="fill:#000000;fill-opacity:1;fill-rule:nonzero;stroke:none"
             id="path330"
             inkscape:connector-curvature="0" /></g><g
           id="g332"
           transform="translate(165.8692,113.1593)"><path
             d="m 0,0 1.036,0 0,-1.653 c 0.359,0.697 1.215,1.872 2.55,1.872 0.438,0 0.757,-0.1 0.916,-0.159 L 4.243,-0.916 c -0.159,0.059 -0.378,0.139 -0.777,0.139 -1.314,0 -2.171,-1.554 -2.43,-2.112 l 0,-6.613 L 0,-9.502 0,0 Z"
             style="fill:#000000;fill-opacity:1;fill-rule:nonzero;stroke:none"
             id="path334"
             inkscape:connector-curvature="0" /></g></g></g><path
       d="m 172.283,118 1.036,0 0,-14.343 -1.036,0 0,14.343 z m 1.136,-9.004 4.163,4.163 1.295,0 -4.203,-4.163 4.422,-5.339 -1.295,0 -4.382,5.339 z"
       style="fill:#000000;fill-opacity:1;fill-rule:nonzero;stroke:none"
       id="path336"
       inkscape:connector-curvature="0" /><g
       id="g338"><g
         id="g340"
         clip-path="url(#clipPath342)"><g
           id="g346"
           transform="translate(107.8642,96.9635)"><path
             d="M 0,0 2.888,0 C 5.677,0 7.43,-1.375 7.43,-3.745 7.43,-6.135 5.777,-7.63 2.769,-7.63 l -1.673,0 0,-5.637 -1.096,0 L 0,0 Z m 2.749,-6.693 c 2.53,0 3.566,1.155 3.566,2.908 0,1.654 -0.996,2.849 -3.526,2.849 l -1.693,0 0,-5.757 1.653,0 z"
             style="fill:#000000;fill-opacity:1;fill-rule:nonzero;stroke:none"
             id="path348"
             inkscape:connector-curvature="0" /></g><g
           id="g350"
           transform="translate(116.9674,86.4853)"><path
             d="m 0,0 0,6.713 1.036,0 0,-6.494 c 0,-1.394 0.498,-2.291 1.952,-2.291 1.415,0 2.59,1.335 2.909,1.893 l 0,6.892 1.035,0 0,-7.669 c 0,-0.757 0.08,-1.474 0.18,-1.833 l -1.056,0 C 5.996,-2.47 5.916,-1.753 5.916,-1.235 5.458,-1.952 4.383,-3.008 2.769,-3.008 0.777,-3.008 0,-1.713 0,0"
             style="fill:#000000;fill-opacity:1;fill-rule:nonzero;stroke:none"
             id="path352"
             inkscape:connector-curvature="0" /></g><g
           id="g354"
           transform="translate(126.4894,84.1944)"><path
             d="m 0,0 0,13.845 1.036,0 0,-5.717 c 0.578,0.657 1.514,1.095 2.49,1.095 2.709,0 4.024,-2.171 4.024,-4.94 0,-2.669 -1.793,-5 -4.701,-5 C 1.713,-0.717 0.657,-0.438 0,0 m 6.454,4.243 c 0,2.072 -0.797,4.044 -3.107,4.044 -0.817,0 -1.773,-0.478 -2.311,-1.076 l 0,-6.653 C 1.474,0.339 2.131,0.179 2.889,0.179 c 2.41,0 3.565,2.092 3.565,4.064"
             style="fill:#000000;fill-opacity:1;fill-rule:nonzero;stroke:none"
             id="path356"
             inkscape:connector-curvature="0" /></g></g></g><path
       d="m 136.17,98.039 1.036,0 0,-14.343 -1.036,0 0,14.343 z"
       style="fill:#000000;fill-opacity:1;fill-rule:nonzero;stroke:none"
       id="path358"
       inkscape:connector-curvature="0" /><g
       id="g360"><g
         id="g362"
         clip-path="url(#clipPath364)"><g
           id="g368"
           transform="translate(140.0347,96.0073)"><path
             d="M 0,0 C 0,0.458 0.359,0.797 0.777,0.797 1.215,0.797 1.574,0.458 1.574,0 1.574,-0.458 1.215,-0.817 0.777,-0.817 0.359,-0.817 0,-0.458 0,0 m 0.259,-2.809 1.056,0 0,-9.502 -1.056,0 0,9.502 z"
             style="fill:#000000;fill-opacity:1;fill-rule:nonzero;stroke:none"
             id="path370"
             inkscape:connector-curvature="0" /></g><g
           id="g372"
           transform="translate(143.3412,88.4575)"><path
             d="m 0,0 c 0,3.008 1.733,4.96 4.183,4.96 1.415,0 2.311,-0.538 2.829,-0.996 L 6.474,3.207 C 5.937,3.665 5.219,4.064 4.163,4.064 2.052,4.064 1.096,2.231 1.096,0.04 c 0,-2.112 0.936,-4.124 3.048,-4.124 1.095,0 2.012,0.478 2.43,0.857 L 7.032,-4.004 C 6.514,-4.462 5.518,-4.98 4.084,-4.98 1.355,-4.98 0,-2.55 0,0"
             style="fill:#000000;fill-opacity:1;fill-rule:nonzero;stroke:none"
             id="path374"
             inkscape:connector-curvature="0" /></g></g></g><g
       id="g376"
       transform="translate(107.5654,63.7355)"><path
         d="m 0,0 0,13.267 2.829,0 0,-10.996 4.94,0 L 7.769,0 0,0 Z"
         style="fill:#000000;fill-opacity:1;fill-rule:nonzero;stroke:none"
         id="path378"
         inkscape:connector-curvature="0" /></g><g
       id="g380"><g
         id="g382"
         clip-path="url(#clipPath384)"><g
           id="g388"
           transform="translate(118.7692,74.6918)"><path
             d="M 0,0 C -0.936,0 -1.614,0.737 -1.614,1.594 -1.614,2.43 -0.936,3.148 0,3.148 0.936,3.148 1.633,2.43 1.633,1.594 1.633,0.737 0.936,0 0,0 m -1.335,-1.255 2.669,0 0,-9.702 -2.669,0 0,9.702 z"
             style="fill:#000000;fill-opacity:1;fill-rule:nonzero;stroke:none"
             id="path390"
             inkscape:connector-curvature="0" /></g><g
           id="g392"
           transform="translate(125.0838,78.0785)"><path
             d="m 0,0 0,-5.399 c 0.438,0.439 1.295,0.997 2.371,0.997 2.43,0 4.123,-1.674 4.123,-5.021 0,-3.306 -2.231,-5.159 -5.159,-5.159 -2.192,0 -3.526,0.558 -3.984,0.777 L -2.649,0 0,0 Z m 0,-12.291 c 0.179,-0.06 0.598,-0.219 1.335,-0.219 1.474,0 2.35,1.095 2.35,3.087 0,1.813 -0.617,2.929 -2.051,2.929 -0.837,0 -1.475,-0.538 -1.634,-0.737 l 0,-5.06 z"
             style="fill:#000000;fill-opacity:1;fill-rule:nonzero;stroke:none"
             id="path394"
             inkscape:connector-curvature="0" /></g><g
           id="g396"
           transform="translate(139.0278,71.1064)"><path
             d="m 0,0 c -0.159,0.099 -0.458,0.219 -1.016,0.219 -1.175,0 -1.873,-1.036 -2.112,-1.474 l 0,-6.116 -2.649,0 0,9.702 2.649,0 0,-1.315 c 0.419,0.717 1.216,1.554 2.451,1.554 0.717,0 1.095,-0.14 1.314,-0.26 L 0,0 Z"
             style="fill:#000000;fill-opacity:1;fill-rule:nonzero;stroke:none"
             id="path398"
             inkscape:connector-curvature="0" /></g><g
           id="g400"
           transform="translate(146.0396,63.7355)"><path
             d="m 0,0 c -0.08,0.239 -0.139,0.737 -0.159,1.036 -0.438,-0.518 -1.355,-1.275 -2.73,-1.275 -1.653,0 -2.928,0.996 -2.928,2.729 0,2.53 2.61,3.447 5.18,3.447 l 0.338,0 0,0.557 c 0,0.837 -0.338,1.355 -1.573,1.355 -1.255,0 -2.112,-0.657 -2.471,-0.917 l -1.155,1.614 c 0.578,0.518 1.853,1.395 3.924,1.395 2.65,0 3.905,-1.017 3.905,-3.586 l 0,-3.486 C 2.331,1.554 2.47,0.618 2.61,0 L 0,0 Z m -0.299,4.303 -0.338,0 c -1.554,0 -2.63,-0.458 -2.63,-1.594 0,-0.717 0.578,-1.015 1.175,-1.015 0.957,0 1.514,0.557 1.793,0.856 l 0,1.753 z"
             style="fill:#000000;fill-opacity:1;fill-rule:nonzero;stroke:none"
             id="path402"
             inkscape:connector-curvature="0" /></g><g
           id="g404"
           transform="translate(156.2786,71.1064)"><path
             d="m 0,0 c -0.159,0.099 -0.458,0.219 -1.016,0.219 -1.175,0 -1.873,-1.036 -2.112,-1.474 l 0,-6.116 -2.649,0 0,9.702 2.649,0 0,-1.315 c 0.419,0.717 1.216,1.554 2.451,1.554 0.717,0 1.095,-0.14 1.314,-0.26 L 0,0 Z"
             style="fill:#000000;fill-opacity:1;fill-rule:nonzero;stroke:none"
             id="path406"
             inkscape:connector-curvature="0" /></g><g
           id="g408"
           transform="translate(157.8719,73.4372)"><path
             d="m 0,0 2.829,0 2.151,-6.395 0.1,0 L 7.052,0 9.781,0 5.777,-10.737 c -0.857,-2.291 -1.873,-3.626 -4.522,-3.626 -0.817,0 -1.295,0.119 -1.494,0.179 l 0.379,2.092 c 0.139,-0.04 0.358,-0.099 0.936,-0.099 1.354,0 1.832,0.657 2.211,1.693 L 3.645,-9.503 0,0 Z"
             style="fill:#000000;fill-opacity:1;fill-rule:nonzero;stroke:none"
             id="path410"
             inkscape:connector-curvature="0" /></g><g
           id="g412"
           transform="translate(62.1697,86.7361)"><path
             d="M 0,0 C 0.5,-0.083 1.125,0.035 2.181,-0.021 3.301,-0.145 3.691,-0.326 4.648,-0.492 5.373,-0.544 3.815,3.029 1.276,4.84 -1.516,6.832 -4.141,7.708 -4.752,7.683 -4.781,7.681 -5.238,7.574 -5.263,7.566 -7.359,6.894 -9.432,5.71 -11.089,4.564 c -0.19,-0.132 -0.454,-0.363 -0.535,-0.599 -0.039,-0.264 0.127,-0.271 0.4,-0.308 C -7.755,3.728 -2.728,1.978 -0.498,0.171 -0.296,0.082 -0.124,0.021 0,0"
             style="fill:#ffffff;fill-opacity:1;fill-rule:nonzero;stroke:none"
             id="path414"
             inkscape:connector-curvature="0" /></g><g
           id="g416"
           transform="translate(56.407,75.5796)"><path
             d="m 0,0 c 0.242,-1.468 0.694,-2.704 1.413,-3.719 2.932,-4.143 8.625,-5.571 12.957,-8.199 0.745,1.098 1.429,2.119 2.679,2.64 1.242,0.517 3.196,0.342 4.879,0.26 1.74,-0.085 3.57,-0.081 4.279,0.96 0.739,1.085 0.711,3.237 -0.44,3.899 -0.617,0.355 -1.568,0.39 -2.239,0.7 -0.491,0.227 -0.869,0.649 -1.14,1.239 -0.226,0.493 -0.436,1.302 -0.142,1.83 0.27,0.487 0.951,0.349 1.499,0.222 1.086,-0.249 2.899,-0.514 3.944,-0.055 C 27.541,0.235 26.842,0.48 26.474,0.7 24.54,1.857 21.764,2.234 19.808,3.319 18.262,4.178 17.076,5.595 15.41,6.359 14.575,6.741 13.659,7.122 12.69,7.442 11.762,7.749 10.897,8.118 9.931,8.402 6.284,9.469 3.686,8.455 2.679,7.659 0.8,6.173 -0.574,3.473 0,0 m 10.801,4.104 c 0.619,0.19 1.072,0.261 1.879,0.3 1.187,0.056 2.321,-0.114 2.72,-0.86 0.24,-0.45 0.314,-1.342 0.179,-2.04 -0.093,-0.483 -0.388,-1.419 -0.86,-1.479 -0.476,-0.062 -0.817,0.448 -1.159,0.64 -0.575,0.32 -1.389,0.531 -2.14,0.779 -0.649,0.215 -1.538,0.481 -1.799,1.1 -0.389,0.921 0.521,1.357 1.18,1.56"
             style="fill:#ffffff;fill-opacity:1;fill-rule:nonzero;stroke:none"
             id="path418"
             inkscape:connector-curvature="0" /></g><g
           id="g420"
           transform="translate(85.7642,66.3342)"><path
             d="M 0,0 C 0.045,-0.048 0.249,-0.138 0.313,-0.12 0.767,1.287 1.047,3.936 0.303,5.246 0.089,5.068 -0.287,4.907 -0.58,4.673 -0.764,4.527 -1.134,4.259 -1.16,4.073 -1.171,4 -1.105,3.734 -1.09,3.627 -0.977,2.78 -1.125,1.983 -1.29,1.307 -0.773,1.006 -0.389,0.417 0,0"
             style="fill:#ffffff;fill-opacity:1;fill-rule:nonzero;stroke:none"
             id="path422"
             inkscape:connector-curvature="0" /></g><g
           id="g424"
           transform="translate(61.9588,49.3454)"><path
             d="m 0,0 c -1.903,2.437 -4.205,4.565 -6.419,6.779 -2.184,2.183 -4.349,4.45 -5.738,7.438 -0.692,1.486 -0.989,3.371 -1.142,5.379 -0.13,1.7 0.195,3.356 0.5,4.759 0.055,0.254 0.281,0.851 -0.081,1.019 -0.508,0.238 -1.613,-1.47 -2.039,-2.319 -1.328,-2.642 -2.219,-5.951 -2.083,-9.897 0.153,-4.426 0.964,-8.378 1.705,-12.218 0.112,-0.575 0.137,-1.202 0.3,-1.7 0.113,-0.344 0.591,-0.666 0.9,-0.939 2.152,-1.908 4.548,-3.59 7.298,-4.819 2.8,-1.251 5.958,-2.106 9.738,-2.38 0.55,-0.039 1.156,-0.142 1.48,0.18 0.007,0.456 -0.174,0.876 -0.32,1.28 C 3.067,-4.585 1.696,-2.171 0,0"
             style="fill:#ffffff;fill-opacity:1;fill-rule:nonzero;stroke:none"
             id="path426"
             inkscape:connector-curvature="0" /></g><g
           id="g428"
           transform="translate(63.9516,95.8349)"><path
             d="m 0,0 c -0.304,-0.028 -1.118,-0.119 -1.113,-0.35 0.01,-0.352 0.484,-0.428 1.106,-0.83 3.198,-2.03 5.894,-5.032 6.819,-9.158 1.269,-0.398 2.522,-0.984 3.559,-1.64 0.371,-0.234 0.798,-0.459 1.09,-0.72 0.401,-0.359 0.448,-1.021 0.83,-1.439 0.33,-0.361 0.998,-0.595 1.5,-0.82 0.559,-0.251 1.101,-0.506 1.579,-0.76 2.112,-1.12 3.922,-2.193 6.103,-3.211 0.961,-0.449 2.351,-1.26 2.236,-2.655 -0.039,-0.483 -0.232,-0.911 -0.239,-1.32 -0.007,-0.418 0.265,-0.904 0.353,-1.282 0.207,-0.884 0.158,-1.947 0.06,-2.899 -0.146,-1.416 -0.387,-2.664 -0.983,-3.618 -0.203,-0.324 -0.435,-0.609 -0.56,-1 -0.124,-0.387 -0.15,-0.816 -0.34,-1.199 2.102,-1.164 3.997,-2.279 5.757,-3.808 0.186,-0.162 0.541,-0.596 0.763,-0.562 0.169,0.024 0.279,0.457 0.36,0.699 0.626,1.864 1.107,3.914 1.32,6.099 0.262,2.693 0.124,5.612 -0.32,7.938 -0.915,4.789 -2.966,8.393 -5.379,11.598 -2.426,3.222 -5.445,5.809 -9.138,7.838 -1.815,0.997 -3.848,1.846 -6.118,2.379 C 6.647,-0.11 3.174,0.291 0,0"
             style="fill:#ffffff;fill-opacity:1;fill-rule:nonzero;stroke:none"
             id="path430"
             inkscape:connector-curvature="0" /></g><g
           id="g432"
           transform="translate(71.9765,40.9873)"><path
             d="m 0,0 c 0.179,-0.077 0.614,0.082 0.86,0.14 3.963,0.947 7.355,2.536 10.137,4.679 0.203,0.156 0.481,0.354 0.5,0.56 0.019,0.2 -0.155,0.502 -0.26,0.7 -0.787,1.485 -1.797,2.819 -2.759,4.019 -1.149,1.434 -2.408,2.785 -3.819,3.939 -2.78,2.273 -6.512,3.959 -9.925,5.775 -3.37,1.793 -6.712,3.458 -9.211,6.122 -1.178,1.256 -2.293,2.966 -2.918,4.878 -0.431,1.319 -0.679,2.801 -0.456,4.619 0.078,1.091 0.482,1.84 -0.265,1.872 -0.407,0.017 -0.748,-0.527 -1.082,-1.194 -0.905,-1.81 -1.985,-4.689 -1.797,-7.496 0.076,-1.135 0.354,-2.28 0.639,-3.179 1.212,-3.81 3.925,-6.442 6.671,-8.666 2.819,-2.283 5.684,-4.506 8.058,-7.199 C -3.557,7.222 -2.107,4.556 -0.83,1.34 -0.702,1.018 -0.36,0.155 0,0"
             style="fill:#ffffff;fill-opacity:1;fill-rule:nonzero;stroke:none"
             id="path434"
             inkscape:connector-curvature="0" /></g><g
           id="g436"
           transform="translate(41.9033,55.3441)"><path
             d="m 0,0 c 0.077,-0.122 0.25,-0.29 0.38,-0.24 0.34,0.132 0.062,1.273 0.03,1.505 -0.049,0.346 -0.112,0.599 -0.16,0.92 -0.67,4.429 -0.506,9.375 0.85,12.872 0.787,2.03 1.954,3.775 3.279,5.318 1.189,1.385 2.266,2.104 3.684,3.228 0.155,0.123 1.378,0.89 1.811,1.496 0.183,0.256 0.186,0.664 0.075,0.843 C 9.644,26.401 6.578,25.451 3.974,23.763 1.977,22.469 0.35,21.383 -1.54,19.319 -1.904,18.921 -2.453,18.404 -2.639,17.976 -2.768,17.68 -2.947,15.904 -2.979,15.516 -3.446,9.967 -2.409,5.115 -0.68,1.4 -0.496,1.005 -0.249,0.396 0,0"
             style="fill:#ffffff;fill-opacity:1;fill-rule:nonzero;stroke:none"
             id="path438"
             inkscape:connector-curvature="0" /></g><g
           id="g440"
           transform="translate(90.8922,54.9644)"><path
             d="m 0,0 c -0.013,0.209 -0.354,0.541 -0.56,0.78 -1.06,1.235 -2.188,2.363 -3.439,3.319 -0.488,0.373 -0.929,0.796 -1.55,0.973 -0.141,0.04 -0.373,0.073 -0.5,0.061 C -6.56,5.082 -6.572,4.586 -6.729,4.153 -6.838,3.851 -7.009,3.528 -7.129,3.313 -7.388,2.848 -7.696,2.255 -8.269,1.973 -8.987,1.62 -9.73,1.851 -10.908,1.813 c 0.051,-0.219 0.144,-0.286 0.271,-0.453 1.699,-2.252 3.471,-4.343 4.738,-7.039 0.101,-0.213 0.41,-1.147 0.66,-1.159 0.246,-0.013 0.641,0.568 0.78,0.719 0.254,0.275 0.524,0.542 0.74,0.78 1.229,1.353 2.241,2.737 3.199,4.339 0.155,0.259 0.538,0.698 0.52,1"
             style="fill:#ffffff;fill-opacity:1;fill-rule:nonzero;stroke:none"
             id="path442"
             inkscape:connector-curvature="0" /></g><g
           id="g444"
           transform="translate(41.5847,79.8277)"><path
             d="m 0,0 c 0.245,-0.21 0.259,-0.086 0.8,0.26 0.733,0.469 1.289,0.878 2.139,1.34 2.009,1.092 4.29,1.877 6.859,2.296 1.977,0.214 3.383,0.039 4.036,0.358 0.275,0.145 0.744,0.447 1.262,0.847 0.725,0.517 1.392,0.626 1.512,0.815 C 16.67,6.346 16.153,6.6 15.816,6.742 12.949,7.952 10.005,8.467 5.37,7.7 5.284,7.685 5.193,7.658 5.084,7.617 5.004,7.589 4.954,7.543 4.825,7.422 3.263,6.082 0.347,1.389 -0.031,0.362 -0.074,0.201 -0.077,0.066 0,0"
             style="fill:#ffffff;fill-opacity:1;fill-rule:nonzero;stroke:none"
             id="path446"
             inkscape:connector-curvature="0" /></g><g
           id="g448"
           transform="translate(76.5954,59.7832)"><path
             d="M 0,0 C 0.219,-0.203 0.456,-0.455 0.72,-0.58 1.086,-0.753 1.619,-0.766 2.16,-0.82 3.714,-0.977 5.505,-1.105 6.319,-0.16 6.283,1.431 7.642,2.084 7.758,3.599 7.795,4.071 7.734,4.492 7.618,4.844 7.514,5.16 7.326,5.554 6.978,5.704 6.246,6.019 5.773,5.323 5.299,5.104 4.516,4.742 3.341,4.679 2.239,4.604 1.104,4.526 -0.073,4.507 -0.78,4.064 -1.156,3.829 -1.351,3.544 -1.519,3.059 -1.591,2.855 -1.822,2.231 -1.8,2.04 -1.776,1.837 -1.404,1.503 -1.24,1.319 -0.756,0.777 -0.482,0.448 0,0"
             style="fill:#ffffff;fill-opacity:1;fill-rule:nonzero;stroke:none"
             id="path450"
             inkscape:connector-curvature="0" /></g><g
           id="g452"
           transform="translate(66.5479,98.7035)"><path
             d="m 0,0 c -16.869,0 -30.548,-13.679 -30.548,-30.548 0,-16.869 13.679,-30.548 30.548,-30.548 16.869,0 30.547,13.679 30.547,30.548 C 30.547,-13.679 16.869,0 0,0 m -1.65,-58.256 c -3.78,0.274 -6.938,1.129 -9.738,2.38 -2.75,1.228 -5.146,2.911 -7.298,4.819 -0.309,0.273 -0.787,0.595 -0.9,0.939 -0.163,0.498 -0.189,1.124 -0.3,1.7 -0.741,3.839 -1.552,7.792 -1.705,12.217 -0.137,3.947 0.755,7.256 2.083,9.898 0.426,0.849 1.531,2.557 2.039,2.319 0.362,-0.168 0.136,-0.765 0.081,-1.019 -0.305,-1.404 -0.63,-3.059 -0.5,-4.759 0.153,-2.008 0.45,-3.893 1.142,-5.379 1.389,-2.988 3.554,-5.255 5.738,-7.438 2.214,-2.214 4.516,-4.343 6.419,-6.779 1.695,-2.171 3.067,-4.585 4.099,-7.438 0.146,-0.404 0.326,-0.824 0.32,-1.28 -0.324,-0.322 -0.93,-0.22 -1.48,-0.18 m 14.417,52.288 c 3.693,-2.029 6.712,-4.616 9.138,-7.838 2.413,-3.204 4.464,-6.809 5.379,-11.597 0.444,-2.327 0.581,-5.246 0.32,-7.938 -0.213,-2.185 -0.694,-4.236 -1.32,-6.099 -0.081,-0.242 -0.191,-0.675 -0.36,-0.7 -0.223,-0.033 -0.577,0.401 -0.764,0.563 -1.759,1.528 -3.655,2.644 -5.756,3.807 0.19,0.383 0.216,0.812 0.34,1.2 0.125,0.39 0.357,0.676 0.56,1 0.596,0.953 0.837,2.202 0.983,3.617 0.098,0.953 0.146,2.015 -0.06,2.899 -0.088,0.378 -0.361,0.865 -0.354,1.283 0.007,0.409 0.201,0.836 0.24,1.319 0.115,1.395 -1.275,2.207 -2.237,2.655 -2.181,1.018 -3.991,2.092 -6.102,3.211 -0.478,0.254 -1.021,0.509 -1.58,0.76 -0.501,0.226 -1.17,0.459 -1.499,0.82 -0.383,0.419 -0.429,1.08 -0.831,1.439 -0.291,0.261 -0.718,0.487 -1.089,0.721 -1.038,0.655 -2.291,1.241 -3.559,1.639 -0.925,4.127 -3.622,7.128 -6.819,9.159 -0.623,0.402 -1.097,0.477 -1.107,0.83 -0.004,0.23 0.81,0.322 1.114,0.349 3.173,0.291 6.646,-0.109 9.244,-0.719 2.27,-0.533 4.304,-1.383 6.119,-2.38 m 5.359,-22.774 c -0.015,0.107 -0.08,0.372 -0.07,0.446 0.027,0.186 0.396,0.453 0.58,0.599 0.293,0.234 0.67,0.395 0.884,0.573 0.743,-1.31 0.463,-3.958 0.009,-5.365 -0.063,-0.018 -0.268,0.072 -0.313,0.12 -0.389,0.417 -0.773,1.005 -1.29,1.306 0.165,0.677 0.314,1.474 0.2,2.321 m -25.588,13.277 c 1.007,0.796 3.605,1.81 7.252,0.743 0.966,-0.284 1.831,-0.653 2.759,-0.96 0.969,-0.32 1.885,-0.701 2.72,-1.083 1.666,-0.764 2.852,-2.181 4.399,-3.04 1.955,-1.085 4.731,-1.462 6.665,-2.619 0.368,-0.22 1.067,-0.465 1.215,-0.923 -1.045,-0.459 -2.858,-0.194 -3.944,0.055 -0.548,0.127 -1.229,0.265 -1.499,-0.222 -0.294,-0.528 -0.084,-1.337 0.142,-1.83 0.272,-0.59 0.65,-1.012 1.14,-1.239 0.671,-0.31 1.622,-0.345 2.239,-0.7 1.151,-0.662 1.179,-2.814 0.44,-3.899 -0.709,-1.041 -2.539,-1.045 -4.279,-0.96 -1.683,0.082 -3.637,0.257 -4.879,-0.26 -1.25,-0.521 -1.933,-1.542 -2.679,-2.64 -4.332,2.628 -10.025,4.056 -12.957,8.199 -0.719,1.015 -1.17,2.251 -1.413,3.719 -0.574,3.474 0.8,6.173 2.679,7.659 m -8.14,7.154 c -0.273,0.037 -0.44,0.044 -0.4,0.308 0.081,0.237 0.345,0.467 0.535,0.599 1.657,1.147 3.729,2.33 5.826,3.002 0.025,0.008 0.482,0.116 0.511,0.117 0.61,0.025 3.235,-0.851 6.027,-2.842 2.539,-1.812 4.098,-5.385 3.373,-5.332 -0.957,0.166 -1.348,0.347 -2.467,0.471 -1.056,0.055 -1.681,-0.063 -2.181,0.021 -0.124,0.02 -0.296,0.082 -0.499,0.17 -2.229,1.808 -7.256,3.558 -10.725,3.486 m 24.13,-27.551 c 0.168,0.485 0.363,0.77 0.74,1.006 0.707,0.443 1.884,0.462 3.019,0.54 1.101,0.075 2.277,0.138 3.059,0.5 0.474,0.218 0.948,0.915 1.68,0.599 0.347,-0.149 0.536,-0.543 0.64,-0.859 0.115,-0.352 0.176,-0.773 0.14,-1.245 -0.117,-1.516 -1.476,-2.168 -1.44,-3.759 -0.813,-0.945 -2.604,-0.817 -4.159,-0.66 -0.54,0.054 -1.074,0.067 -1.439,0.24 -0.265,0.125 -0.501,0.376 -0.72,0.58 -0.482,0.447 -0.756,0.777 -1.24,1.319 -0.165,0.184 -0.536,0.517 -0.56,0.72 -0.022,0.192 0.209,0.816 0.28,1.019 m -28.666,24.408 c 0.129,0.121 0.178,0.167 0.259,0.195 0.109,0.041 0.2,0.069 0.286,0.083 4.635,0.767 7.579,0.252 10.446,-0.958 0.336,-0.142 0.854,-0.396 0.792,-0.826 -0.12,-0.189 -0.787,-0.298 -1.512,-0.815 -0.518,-0.4 -0.987,-0.702 -1.262,-0.846 -0.653,-0.32 -2.059,-0.145 -4.036,-0.359 -2.569,-0.419 -4.85,-1.203 -6.859,-2.296 -0.85,-0.462 -1.406,-0.871 -2.139,-1.34 -0.541,-0.346 -0.555,-0.47 -0.8,-0.26 -0.077,0.066 -0.074,0.201 -0.031,0.362 0.378,1.027 3.294,5.72 4.856,7.06 m -7.486,-16.389 c 0.033,0.388 0.211,2.163 0.34,2.46 0.187,0.428 0.735,0.945 1.1,1.343 1.889,2.063 3.516,3.149 5.514,4.444 2.603,1.687 5.669,2.638 5.974,2.179 0.112,-0.179 0.108,-0.587 -0.074,-0.843 -0.434,-0.606 -1.657,-1.374 -1.811,-1.496 -1.418,-1.125 -2.496,-1.843 -3.685,-3.228 -1.325,-1.544 -2.492,-3.289 -3.279,-5.319 -1.356,-3.497 -1.519,-8.443 -0.85,-12.872 0.048,-0.32 0.111,-0.573 0.16,-0.919 0.033,-0.232 0.31,-1.374 -0.03,-1.505 -0.13,-0.05 -0.302,0.117 -0.38,0.24 -0.249,0.395 -0.496,1.004 -0.68,1.399 -1.728,3.716 -2.765,8.568 -2.299,14.117 m 27.426,-20.304 c -2.374,2.693 -5.24,4.915 -8.058,7.199 -2.746,2.224 -5.459,4.855 -6.671,8.666 -0.285,0.899 -0.564,2.044 -0.64,3.179 -0.188,2.807 0.893,5.685 1.798,7.496 0.333,0.667 0.675,1.21 1.082,1.193 0.747,-0.031 0.343,-0.78 0.265,-1.871 -0.223,-1.818 0.025,-3.3 0.456,-4.619 0.625,-1.912 1.74,-3.622 2.918,-4.878 2.499,-2.665 5.84,-4.33 9.211,-6.123 3.413,-1.815 7.145,-3.501 9.925,-5.774 1.41,-1.154 2.669,-2.505 3.819,-3.939 0.962,-1.201 1.972,-2.535 2.759,-4.019 0.105,-0.198 0.279,-0.5 0.26,-0.7 -0.019,-0.206 -0.297,-0.404 -0.5,-0.56 -2.782,-2.143 -6.175,-3.732 -10.138,-4.679 -0.245,-0.059 -0.68,-0.217 -0.859,-0.14 -0.361,0.154 -0.703,1.018 -0.83,1.339 -1.277,3.217 -2.728,5.883 -4.797,8.23 m 20.083,-1.711 c -0.139,-0.151 -0.533,-0.732 -0.779,-0.719 -0.25,0.012 -0.56,0.946 -0.66,1.159 -1.268,2.696 -3.039,4.787 -4.739,7.038 -0.127,0.168 -0.22,0.235 -0.271,0.454 1.178,0.038 1.921,-0.193 2.64,0.16 0.573,0.282 0.881,0.874 1.139,1.34 0.12,0.214 0.291,0.538 0.4,0.84 0.157,0.433 0.169,0.928 0.68,0.979 0.127,0.013 0.359,-0.02 0.5,-0.06 0.621,-0.177 1.062,-0.6 1.55,-0.973 1.251,-0.956 2.379,-2.084 3.439,-3.319 0.206,-0.239 0.548,-0.572 0.56,-0.78 0.018,-0.302 -0.365,-0.741 -0.519,-1 -0.959,-1.602 -1.971,-2.986 -3.2,-4.339 -0.216,-0.238 -0.486,-0.505 -0.74,-0.78"
             style="fill:#000000;fill-opacity:1;fill-rule:nonzero;stroke:none"
             id="path454"
             inkscape:connector-curvature="0" /></g><g
           id="g456"
           transform="translate(67.8273,77.024)"><path
             d="m 0,0 c 0.751,-0.249 1.565,-0.459 2.139,-0.78 0.343,-0.191 0.684,-0.701 1.16,-0.64 0.472,0.061 0.767,0.996 0.86,1.48 C 4.294,0.758 4.22,1.649 3.979,2.099 3.581,2.845 2.447,3.016 1.26,2.959 0.453,2.921 0,2.849 -0.62,2.659 -1.278,2.457 -2.188,2.021 -1.799,1.1 -1.538,0.481 -0.649,0.215 0,0"
             style="fill:#000000;fill-opacity:1;fill-rule:nonzero;stroke:none"
             id="path458"
             inkscape:connector-curvature="0" /></g></g></g></g></svg>